<svg width="803" height="205" viewBox="0 0 803 205" fill="none" xmlns="http://www.w3.org/2000/svg">
<path d="M264.151 159.739H248.551V119.089C248.551 108.139 242.251 98.9893 231.301 98.9893C220.351 98.9893 213.451 108.139 213.451 119.089V159.739H198.001V85.6393H212.401L213.451 95.5393C217.651 87.4393 226.351 84.4393 234.151 84.4393C243.601 84.4393 253.201 88.3393 257.401 99.2893C263.401 88.3393 272.701 84.5893 282.751 84.5893C303.151 84.5893 314.101 97.4893 314.101 118.789V159.739H298.501V118.789C298.501 107.839 293.101 99.1393 282.151 99.1393C271.201 99.1393 264.151 108.139 264.151 119.089V159.739ZM393.035 97.4893L393.485 85.7893H408.485C408.485 110.389 408.485 135.139 408.485 159.739H393.785L393.035 147.739C388.085 157.189 376.685 161.689 367.535 161.689C345.935 161.839 329.585 147.889 329.585 122.689C329.585 97.9393 346.535 84.1393 367.835 84.1393C378.335 84.1393 388.385 89.0893 393.035 97.4893ZM369.035 98.2393C355.835 98.2393 345.035 107.539 345.035 122.689C345.035 137.989 355.835 147.289 369.035 147.289C400.985 147.289 400.985 98.2393 369.035 98.2393ZM444.896 85.4893V159.739H429.446V85.4893H444.896ZM427.646 64.0393C427.646 76.7893 446.846 76.7893 446.846 64.0393C446.846 51.4392 427.646 51.4392 427.646 64.0393ZM466.521 54.8892H481.971V159.739H466.521V54.8892ZM526.967 159.739H511.367V100.339H497.267V86.6893H511.367V81.2893C511.367 62.8393 522.917 53.2393 538.067 53.2393C544.367 53.2393 550.667 55.3393 556.217 59.0893L550.217 70.6393C546.317 68.0893 542.867 66.7393 538.967 66.7393C531.917 66.7393 526.967 71.3893 526.967 81.2893V86.6893H549.317V100.339H526.967V159.739ZM562.615 54.8892H578.065V159.739H562.615V54.8892ZM633.111 84.2893C655.911 84.2893 671.511 101.089 671.511 122.839C671.511 144.739 656.361 161.239 633.111 161.239C610.011 161.239 595.011 144.739 595.011 122.839C595.011 101.089 610.161 84.2893 633.111 84.2893ZM633.111 98.5393C619.011 98.5393 610.461 109.789 610.461 122.839C610.461 136.039 619.011 146.839 633.111 146.839C647.361 146.839 655.911 136.039 655.911 122.839C655.911 109.789 646.611 98.5393 633.111 98.5393ZM732.001 85.6393H745.351L763.051 143.839L781.351 85.6393H798.601L772.651 160.039H754.651L745.951 135.439L738.751 109.639L731.401 135.439L722.701 160.039H704.701L678.601 85.6393H696.001L714.301 143.839L732.001 85.6393Z" fill="#454655"/>
<path d="M50.073 69.8555L27.3433 92.5851" stroke="#4B7FFF" stroke-width="13.7911" stroke-linecap="round" stroke-linejoin="round"/>
<path d="M81.2789 119.376L49.3918 151.263" stroke="#4B7FFF" stroke-width="13.7911" stroke-linecap="round" stroke-linejoin="round"/>
<path d="M59.2812 101.009L36.3498 123.94" stroke="#4B7FFF" stroke-width="13.7911" stroke-linecap="round" stroke-linejoin="round"/>
<path d="M99.7198 141.3L80.4715 160.548" stroke="#4B7FFF" stroke-width="13.7911" stroke-linecap="round" stroke-linejoin="round"/>
<path d="M130.976 150.405L104.059 177.323" stroke="#4B7FFF" stroke-width="13.7911" stroke-linecap="round" stroke-linejoin="round"/>
<path d="M44.0436 85.7227L33.9527 95.8135L34.0789 95.9397C36.8538 93.1647 41.3947 93.1647 44.1697 95.9397C46.9447 98.7146 46.9447 103.256 44.1697 106.031L44.2958 106.157L54.3867 96.0658L44.0436 85.7227Z" fill="#4B7FFF"/>
<path d="M59.8102 109.613L49.7193 119.704L50.1986 120.183C52.9736 117.408 57.5145 117.408 60.2895 120.183C63.0645 122.958 63.0645 127.499 60.2895 130.274L61.0968 131.082L71.1876 120.991L59.8102 109.613Z" fill="#4B7FFF"/>
<path d="M78.9329 128.734L68.842 138.825L70.3809 140.364C73.1559 137.589 77.6967 137.589 80.4717 140.364C83.2467 143.139 83.2467 147.68 80.4717 150.455L81.6574 151.641L91.7483 141.55L78.9329 128.734Z" fill="#4B7FFF"/>
<path d="M104.084 145.763L93.9934 155.854L94.624 156.484C97.399 153.709 101.94 153.709 104.715 156.484C107.49 159.259 107.49 163.8 104.715 166.575L105.119 166.979L115.209 156.888L104.084 145.763Z" fill="#4B7FFF"/>
<path d="M143.615 36.5035L56.6318 65.7165C48.0545 68.5924 44.0182 77.4724 46.0868 85.2928C47.1211 89.203 50.0222 92.3564 53.7306 93.8953L85.9205 107.417C89.2 108.779 91.8236 111.403 93.1859 114.682L106.657 146.67C108.423 150.858 112.132 153.961 116.622 154.768C124.089 156.131 132.212 152.044 134.912 143.946L164.125 56.9627C168.388 44.223 156.329 32.1644 143.59 36.4278L143.64 36.4783L143.615 36.5035Z" stroke="#4B7FFF" stroke-width="13.7911" stroke-miterlimit="10"/>
<path d="M88.4528 101.299L117.383 80.7213C119.098 79.506 120.998 81.4064 119.783 83.1218L99.205 112.052C98.5177 113.039 97.1837 113.223 96.4085 112.448L88.0318 104.071C87.2817 103.321 87.4654 101.987 88.4278 101.274L88.4528 101.299Z" fill="#4B7FFF"/>
<path d="M67.0762 173.941L61.5514 179.466" stroke="#4B7FFF" stroke-width="13.7911" stroke-linecap="round" stroke-linejoin="round"/>
<path d="M14.1543 105.761L7.21126 112.704" stroke="#4B7FFF" stroke-width="13.7911" stroke-linecap="round" stroke-linejoin="round"/>
<path d="M102.015 131.283L68.6652 97.9326L57.4138 109.184L90.7641 142.534L102.015 131.283Z" fill="#4B7FFF"/>
</svg>
