<svg width="880" height="875" viewBox="0 0 880 875" fill="none" xmlns="http://www.w3.org/2000/svg">
<path d="M219.904 305.992L120.364 405.532" stroke="#4B7FFF" stroke-width="62.4953" stroke-linecap="round" stroke-linejoin="round"/>
<path d="M356.565 522.858L216.922 662.501" stroke="#4B7FFF" stroke-width="62.4953" stroke-linecap="round" stroke-linejoin="round"/>
<path d="M260.229 442.432L159.805 542.855" stroke="#4B7FFF" stroke-width="62.4953" stroke-linecap="round" stroke-linejoin="round"/>
<path d="M437.323 618.864L353.029 703.158" stroke="#4B7FFF" stroke-width="62.4953" stroke-linecap="round" stroke-linejoin="round"/>
<path d="M574.205 658.745L456.326 776.624" stroke="#4B7FFF" stroke-width="62.4953" stroke-linecap="round" stroke-linejoin="round"/>
<path d="M193.5 375.482L149.309 419.673L149.862 420.226C162.014 408.073 181.9 408.073 194.052 420.226C206.205 432.378 206.205 452.264 194.052 464.416L194.605 464.969L238.796 420.778L193.5 375.482Z" fill="#4B7FFF"/>
<path d="M262.548 480.104L218.358 524.294L220.457 526.393C232.609 514.241 252.495 514.241 264.647 526.393C276.8 538.546 276.8 558.432 264.647 570.584L268.183 574.119L312.373 529.929L262.548 480.104Z" fill="#4B7FFF"/>
<path d="M346.29 563.846L302.099 608.037L308.838 614.776C320.991 602.623 340.877 602.623 353.029 614.776C365.182 626.928 365.182 646.814 353.029 658.967L358.222 664.159L402.412 619.968L346.29 563.846Z" fill="#4B7FFF"/>
<path d="M456.436 638.418L412.245 682.609L415.007 685.371C427.159 673.218 447.045 673.218 459.197 685.371C471.35 697.523 471.35 717.409 459.197 729.562L460.965 731.329L505.156 687.138L456.436 638.418Z" fill="#4B7FFF"/>
<path d="M629.554 159.941L248.629 287.874C211.066 300.468 193.39 339.356 202.449 373.604C206.979 390.728 219.683 404.538 235.924 411.277L376.892 470.493C391.254 476.458 402.744 487.948 408.71 502.31L467.705 642.395C475.438 660.734 491.678 674.323 511.343 677.858C544.044 683.824 579.618 665.927 591.439 630.463L719.371 249.538C738.042 193.747 685.234 140.939 629.443 159.61L629.664 159.831L629.554 159.941Z" stroke="#4B7FFF" stroke-width="62.4953" stroke-miterlimit="10"/>
<path d="M387.979 443.703L514.671 353.585C522.184 348.263 530.506 356.586 525.184 364.098L435.066 490.79C432.056 495.114 426.214 495.919 422.82 492.524L386.136 455.84C382.85 452.555 383.655 446.713 387.87 443.594L387.979 443.703Z" fill="#4B7FFF"/>
<path d="M294.366 761.82L270.171 786.015" stroke="#4B7FFF" stroke-width="62.4953" stroke-linecap="round" stroke-linejoin="round"/>
<path d="M62.6062 463.237L32.2006 493.643" stroke="#4B7FFF" stroke-width="62.4953" stroke-linecap="round" stroke-linejoin="round"/>
<path d="M447.377 575.004L301.326 428.953L252.053 478.226L398.104 624.277L447.377 575.004Z" fill="#4B7FFF"/>
</svg>
